<svg width="170" height="68" viewBox="0 0 170 68" fill="none" xmlns="http://www.w3.org/2000/svg">
<path d="M43.4109 6.528C43.1869 8.768 43.0189 10.952 42.9069 13.08C42.8509 15.208 42.8229 16.832 42.8229 17.952C42.8229 19.24 42.8509 20.472 42.9069 21.648C42.9629 22.824 43.0189 23.832 43.0749 24.672H41.1429C40.6389 20.584 39.9389 17.392 39.0429 15.096C38.2029 12.744 36.9149 11.064 35.1789 10.056C33.4429 8.992 30.9509 8.45999 27.7029 8.45999H23.2509C21.4589 8.45999 20.0869 8.628 19.1349 8.964C18.2389 9.244 17.6229 9.86 17.2869 10.812C16.9509 11.708 16.7829 13.136 16.7829 15.096V56.928C16.7829 59 17.0069 60.568 17.4549 61.632C17.9029 62.64 18.7429 63.312 19.9749 63.648C21.2069 63.984 23.0269 64.18 25.4349 64.236V66C23.9229 65.888 21.9629 65.832 19.5549 65.832C17.1469 65.776 14.6549 65.748 12.0789 65.748C9.83894 65.748 7.68294 65.776 5.61094 65.832C3.59494 65.832 1.88694 65.888 0.486938 66V64.32C2.39094 64.208 3.81894 63.984 4.77094 63.648C5.72294 63.312 6.33894 62.64 6.61894 61.632C6.95494 60.624 7.12294 59.112 7.12294 57.096V15.432C7.12294 13.36 6.95494 11.848 6.61894 10.896C6.33894 9.888 5.69494 9.216 4.68694 8.88C3.73494 8.488 2.33494 8.264 0.486938 8.208V6.528C2.67094 6.584 4.93894 6.64 7.29094 6.696C9.69894 6.696 12.0509 6.724 14.3469 6.78C16.6989 6.78 18.8829 6.78 20.8989 6.78C22.9149 6.78 24.5669 6.78 25.8549 6.78C28.4309 6.78 31.3429 6.78 34.5909 6.78C37.8949 6.724 40.8349 6.64 43.4109 6.528ZM30.5589 35.928C30.5589 35.928 30.5589 36.208 30.5589 36.768C30.5589 37.328 30.5589 37.608 30.5589 37.608H14.2629C14.2629 37.608 14.2629 37.328 14.2629 36.768C14.2629 36.208 14.2629 35.928 14.2629 35.928H30.5589ZM32.3229 24.84C32.0989 28.032 31.9869 30.468 31.9869 32.148C32.0429 33.828 32.0709 35.368 32.0709 36.768C32.0709 38.168 32.0989 39.708 32.1549 41.388C32.2109 43.068 32.3509 45.504 32.5749 48.696H30.6429C30.4189 46.848 30.0829 45.084 29.6349 43.404C29.1869 41.668 28.3749 40.268 27.1989 39.204C26.0229 38.14 24.2589 37.608 21.9069 37.608V35.928C23.6989 35.928 25.0989 35.564 26.1069 34.836C27.1709 34.108 27.9829 33.156 28.5429 31.98C29.1029 30.804 29.4949 29.6 29.7189 28.368C29.9989 27.08 30.2229 25.904 30.3909 24.84H32.3229ZM58.0394 1.488C59.7754 1.488 61.2314 2.048 62.4074 3.168C63.5834 4.232 64.1714 5.576 64.1714 7.2C64.1714 8.824 63.5834 10.196 62.4074 11.316C61.2314 12.38 59.7754 12.912 58.0394 12.912C56.3034 12.912 54.8474 12.38 53.6714 11.316C52.4954 10.196 51.9074 8.824 51.9074 7.2C51.9074 5.576 52.4954 4.232 53.6714 3.168C54.8474 2.048 56.3034 1.488 58.0394 1.488ZM63.0794 21.732V58.188C63.0794 60.54 63.5274 62.136 64.4234 62.976C65.3754 63.816 66.9434 64.236 69.1274 64.236V66C68.1754 65.944 66.6914 65.888 64.6754 65.832C62.7154 65.72 60.6994 65.664 58.6274 65.664C56.6674 65.664 54.6514 65.72 52.5794 65.832C50.5074 65.888 48.9674 65.944 47.9594 66V64.236C50.1434 64.236 51.6834 63.816 52.5794 62.976C53.5314 62.136 54.0074 60.54 54.0074 58.188V31.812C54.0074 29.292 53.5874 27.444 52.7474 26.268C51.9074 25.036 50.3114 24.42 47.9594 24.42V22.656C49.7514 22.824 51.4874 22.908 53.1674 22.908C55.0714 22.908 56.8354 22.824 58.4594 22.656C60.1394 22.432 61.6794 22.124 63.0794 21.732ZM102.375 21.48C104.615 21.48 106.435 21.788 107.835 22.404C109.291 22.964 110.495 23.748 111.447 24.756C112.455 25.82 113.155 27.192 113.547 28.872C113.995 30.552 114.219 32.82 114.219 35.676V58.188C114.219 60.54 114.667 62.136 115.563 62.976C116.515 63.816 118.083 64.236 120.267 64.236V66C119.315 65.944 117.831 65.888 115.815 65.832C113.799 65.72 111.811 65.664 109.851 65.664C107.947 65.664 106.043 65.72 104.139 65.832C102.291 65.888 100.891 65.944 99.939 66V64.236C101.843 64.236 103.187 63.816 103.971 62.976C104.755 62.136 105.147 60.54 105.147 58.188V33.324C105.147 31.7 105.007 30.244 104.727 28.956C104.447 27.612 103.859 26.548 102.963 25.764C102.067 24.924 100.723 24.504 98.931 24.504C96.859 24.504 95.011 25.092 93.387 26.268C91.819 27.444 90.559 29.068 89.607 31.14C88.711 33.156 88.263 35.424 88.263 37.944V58.188C88.263 60.54 88.655 62.136 89.439 62.976C90.279 63.816 91.623 64.236 93.471 64.236V66C92.575 65.944 91.203 65.888 89.355 65.832C87.563 65.72 85.687 65.664 83.727 65.664C81.823 65.664 79.835 65.72 77.763 65.832C75.691 65.888 74.151 65.944 73.143 66V64.236C75.327 64.236 76.867 63.816 77.763 62.976C78.715 62.136 79.191 60.54 79.191 58.188V31.812C79.191 29.292 78.771 27.444 77.931 26.268C77.091 25.036 75.495 24.42 73.143 24.42V22.656C74.935 22.824 76.671 22.908 78.351 22.908C80.255 22.908 82.019 22.824 83.643 22.656C85.323 22.432 86.863 22.124 88.263 21.732V30.888C89.719 27.416 91.707 24.98 94.227 23.58C96.803 22.18 99.519 21.48 102.375 21.48ZM163.068 0.143997V56.844C163.068 59.364 163.488 61.24 164.328 62.472C165.224 63.648 166.82 64.236 169.116 64.236V66C167.38 65.832 165.644 65.748 163.908 65.748C162.004 65.748 160.212 65.832 158.532 66C156.908 66.168 155.396 66.476 153.996 66.924V10.224C153.996 7.704 153.548 5.856 152.652 4.68C151.812 3.448 150.244 2.832 147.948 2.832V1.06799C149.74 1.236 151.476 1.32 153.156 1.32C155.004 1.32 156.768 1.236 158.448 1.06799C160.128 0.843998 161.668 0.535998 163.068 0.143997ZM144.168 21.48C146.632 21.48 148.872 22.012 150.888 23.076C152.96 24.14 154.416 25.932 155.256 28.452L154.248 29.376C153.464 27.36 152.316 25.904 150.804 25.008C149.292 24.056 147.584 23.58 145.68 23.58C142.488 23.58 139.884 25.288 137.868 28.704C135.852 32.064 134.872 37.272 134.928 44.328C134.928 48.976 135.32 52.784 136.104 55.752C136.888 58.664 138.036 60.82 139.548 62.22C141.116 63.62 142.992 64.32 145.176 64.32C147.36 64.32 149.32 63.396 151.056 61.548C152.848 59.7 153.912 57.04 154.248 53.568L155.004 55.332C154.444 59.14 153.1 62.08 150.972 64.152C148.844 66.168 145.988 67.176 142.404 67.176C138.988 67.176 135.964 66.364 133.332 64.74C130.756 63.06 128.768 60.54 127.368 57.18C125.968 53.764 125.268 49.48 125.268 44.328C125.268 39.232 126.108 35.004 127.788 31.644C129.524 28.228 131.82 25.68 134.676 24C137.532 22.32 140.696 21.48 144.168 21.48Z" fill="#EBE0C6"/>
</svg>
