<svg width="586" height="122" viewBox="0 0 586 122" fill="none" xmlns="http://www.w3.org/2000/svg">
<path d="M38.7486 49.2035L39.6953 46.4985H87.4386L86.3566 49.2035H38.7486ZM89.8731 14.5795C90.7747 11.2433 91.1354 8.80883 90.9551 7.276C90.8649 5.653 90.0985 4.571 88.6558 4.03C87.2132 3.39883 84.959 3.03816 81.8933 2.948L82.5696 0.242999C85.0041 0.333165 88.1599 0.42333 92.0371 0.513496C95.9143 0.603661 99.7914 0.648744 103.669 0.648744C108.087 0.648744 112.279 0.603661 116.247 0.513496C120.214 0.42333 123.46 0.333165 125.985 0.242999L125.309 2.948C122.243 3.03816 119.853 3.39883 118.14 4.03C116.427 4.571 115.075 5.653 114.083 7.276C113.181 8.80883 112.279 11.2433 111.378 14.5795L93.5248 81.6635C92.7133 84.9095 92.3527 87.344 92.4428 88.967C92.533 90.59 93.2994 91.672 94.7421 92.213C96.1848 92.754 98.4389 93.1147 101.505 93.295L100.964 96C98.5291 95.8197 95.3282 95.7295 91.3608 95.7295C87.3935 95.6393 83.2008 95.5942 78.7826 95.5942C74.9054 95.5942 70.9832 95.6393 67.0158 95.7295C63.1387 95.7295 59.9828 95.8197 57.5483 96L58.0893 93.295C61.155 93.1147 63.5444 92.754 65.2576 92.213C66.9707 91.672 68.3232 90.59 69.3151 88.967C70.3069 87.344 71.2086 84.9095 72.0201 81.6635L89.8731 14.5795ZM36.7198 81.6635C35.9083 84.9095 35.5477 87.344 35.6378 88.967C35.728 90.59 36.4944 91.672 37.9371 92.213C39.3797 92.754 41.6339 93.1147 44.6996 93.295L44.1586 96C41.6339 95.8197 38.433 95.7295 34.5558 95.7295C30.7688 95.6393 26.8917 95.5942 22.9243 95.5942C18.416 95.5942 14.2232 95.6393 10.3461 95.7295C6.46891 95.7295 3.31308 95.8197 0.878578 96L1.55483 93.295C4.53033 93.1147 6.82958 92.754 8.45258 92.213C10.1657 91.672 11.5182 90.59 12.5101 88.967C13.5019 87.344 14.4036 84.9095 15.2151 81.6635L33.0681 14.5795C33.9697 11.2433 34.3304 8.80883 34.1501 7.276C33.9697 5.653 33.1582 4.571 31.7156 4.03C30.3631 3.39883 28.154 3.03816 25.0883 2.948L25.7646 0.242999C28.0187 0.333165 31.1295 0.42333 35.0968 0.513496C39.0642 0.603661 43.302 0.648744 47.8103 0.648744C51.7777 0.648744 55.6097 0.603661 59.3066 0.513496C63.0936 0.42333 66.3847 0.333165 69.1798 0.242999L68.5036 2.948C65.4379 3.03816 63.0485 3.39883 61.3353 4.03C59.6222 4.571 58.2697 5.653 57.2778 7.276C56.3762 8.80883 55.4745 11.2433 54.5728 14.5795L36.7198 81.6635ZM138.134 90.59C139.577 90.59 141.155 89.8236 142.868 88.2907C144.581 86.7579 146.339 84.5488 148.143 81.6635C149.946 78.688 151.704 75.0813 153.417 70.8435C155.131 66.6057 156.708 61.6916 158.151 56.1012L155.176 70.8435C152.921 77.5158 150.442 82.8357 147.737 86.803C145.032 90.7703 142.146 93.6106 139.081 95.3237C136.015 97.0369 132.814 97.8935 129.478 97.8935C124.429 97.8935 120.642 96.4057 118.117 93.4302C115.592 90.4547 114.33 86.3972 114.33 81.2577C114.33 76.3887 115.142 71.2943 116.765 65.9745C118.478 60.6547 120.732 55.5152 123.527 50.556C126.412 45.5968 129.613 41.1336 133.13 37.1662C136.736 33.1989 140.523 30.0431 144.491 27.6988C148.548 25.3544 152.516 24.1822 156.393 24.1822C159.368 24.1822 161.668 25.3544 163.291 27.6988C164.914 30.0431 165.409 33.6948 164.778 38.654L163.291 39.4655C163.741 36.2195 163.561 33.6948 162.75 31.8915C162.028 30.0882 160.766 29.1865 158.963 29.1865C157.159 29.1865 155.131 30.2234 152.876 32.2972C150.712 34.3711 148.548 37.2113 146.384 40.818C144.22 44.4247 142.192 48.5272 140.298 53.1257C138.495 57.6341 137.052 62.4129 135.97 67.4622C134.888 72.4214 134.347 77.3355 134.347 82.2045C134.347 85.2702 134.663 87.4342 135.294 88.6965C135.925 89.9588 136.872 90.59 138.134 90.59ZM166.807 26.211C170.684 26.1208 174.201 25.9405 177.357 25.67C180.512 25.3093 183.533 24.8134 186.418 24.1822L168.701 84.5037C168.43 85.6759 168.205 86.803 168.024 87.885C167.934 88.8768 168.069 89.6883 168.43 90.3195C168.881 90.9507 169.602 91.2662 170.594 91.2662C171.766 91.2662 173.074 90.59 174.516 89.2375C175.959 87.7948 177.447 84.9095 178.98 80.5815L181.414 74.0895H183.984L180.603 83.9627C179.34 87.6596 177.717 90.4998 175.734 92.4835C173.75 94.4672 171.631 95.8647 169.377 96.6763C167.123 97.4878 164.914 97.8935 162.75 97.8935C158.061 97.8935 154.725 96.4959 152.741 93.7007C151.389 91.7171 150.757 89.2826 150.848 86.3972C151.028 83.4217 151.659 80.0405 152.741 76.2535L166.807 26.211ZM210.982 96H191.912L208.412 37.572C209.043 35.1375 209.224 33.4243 208.953 32.4325C208.773 31.3505 208.097 30.8095 206.925 30.8095C205.302 30.8095 203.814 31.621 202.461 33.244C201.109 34.7768 199.666 37.5269 198.133 41.4942L195.564 48.392H192.994L196.646 38.113C197.998 34.5063 199.621 31.7112 201.515 29.7275C203.408 27.7438 205.527 26.3462 207.871 25.5347C210.306 24.6331 212.785 24.1822 215.31 24.1822C218.195 24.1822 220.404 24.7683 221.937 25.9405C223.47 27.0225 224.507 28.5102 225.048 30.4037C225.589 32.2972 225.769 34.3711 225.589 36.6252C225.499 38.7892 225.183 40.9532 224.642 43.1172L210.982 96ZM245.606 27.1577C243.803 27.1577 241.864 27.6987 239.79 28.7807C237.716 29.8627 235.598 31.8013 233.434 34.5965C231.27 37.3917 228.97 41.2688 226.536 46.228C224.191 51.1872 221.757 57.5439 219.232 65.2982C216.798 72.9624 214.273 82.2496 211.658 93.1597L214.634 74.901C217.519 64.9827 220.134 56.7775 222.478 50.2855C224.823 43.7935 227.167 38.654 229.511 34.867C231.946 30.9898 234.47 28.2397 237.085 26.6167C239.79 24.9937 242.856 24.1822 246.282 24.1822C249.799 24.1822 252.504 25.2192 254.397 27.293C256.291 29.3668 257.238 31.9817 257.238 35.1375C257.238 37.6622 256.651 40.0065 255.479 42.1705C254.397 44.2443 252.864 45.9575 250.881 47.31C248.987 48.5723 246.823 49.2035 244.389 49.2035C241.774 49.2035 239.745 48.5272 238.303 47.1747C236.86 45.7321 236.139 43.7033 236.139 41.0885C236.139 38.9245 236.634 36.9408 237.626 35.1375C238.618 33.244 239.971 31.621 241.684 30.2685C243.397 28.916 245.29 28.0143 247.364 27.5635C247.094 27.4733 246.823 27.3832 246.553 27.293C246.282 27.2028 245.967 27.1577 245.606 27.1577ZM274.513 96H255.442L271.943 37.572C272.303 36.3998 272.484 35.3178 272.484 34.326C272.574 33.244 272.484 32.3874 272.213 31.7562C271.943 31.1251 271.267 30.8095 270.185 30.8095C268.652 30.8095 267.209 31.621 265.857 33.244C264.504 34.867 263.106 37.6171 261.664 41.4942L259.094 48.392H256.524L260.176 38.113C261.529 34.5063 263.152 31.7112 265.045 29.7275C266.939 27.7438 269.057 26.3462 271.402 25.5347C273.746 24.6331 276.09 24.1822 278.435 24.1822C281.5 24.1822 283.845 24.7683 285.468 25.9405C287.091 27.0225 288.173 28.5102 288.714 30.4037C289.255 32.2972 289.435 34.3711 289.255 36.6252C289.074 38.7892 288.714 40.9532 288.173 43.1172L274.513 96ZM307.243 39.8712C307.694 38.3384 308.009 36.9859 308.19 35.8137C308.46 34.5514 308.46 33.5596 308.19 32.8382C307.919 32.1169 307.243 31.7562 306.161 31.7562C304.087 31.7562 301.878 33.0186 299.534 35.5432C297.189 37.9777 294.755 41.4492 292.23 45.9575C289.796 50.4658 287.361 55.8307 284.927 62.0522C282.492 68.2737 280.193 75.0813 278.029 82.475L278.705 73.1427C282.492 61.1506 286.189 51.5929 289.796 44.4697C293.402 37.2564 297.28 32.0718 301.427 28.916C305.575 25.7602 310.264 24.1822 315.493 24.1822C318.469 24.1822 320.723 24.7232 322.256 25.8052C323.879 26.8872 324.961 28.375 325.502 30.2685C326.043 32.162 326.178 34.326 325.908 36.7605C325.727 39.195 325.276 41.8098 324.555 44.605L310.083 96H290.743L307.243 39.8712ZM343.355 39.8712C344.166 37.5269 344.527 35.5883 344.437 34.0555C344.437 32.5227 343.806 31.7562 342.543 31.7562C340.83 31.7562 338.846 32.8382 336.592 35.0022C334.428 37.0761 332.084 40.277 329.559 44.605C327.035 48.8428 324.42 54.2528 321.715 60.835C319.01 67.327 316.305 74.9912 313.6 83.8275L313.87 76.524C317.116 66.245 320.182 57.7242 323.067 50.9617C326.043 44.1992 329.018 38.8794 331.994 35.0022C335.059 31.0349 338.215 28.2397 341.461 26.6167C344.707 24.9937 348.179 24.1822 351.876 24.1822C355.753 24.1822 358.548 25.129 360.261 27.0225C361.974 28.8258 362.831 31.2603 362.831 34.326C362.921 37.3917 362.335 40.818 361.073 44.605L347.818 84.5037C346.916 87.1186 346.691 88.9219 347.142 89.9137C347.683 90.8154 348.494 91.2662 349.576 91.2662C350.748 91.2662 352.056 90.6351 353.499 89.3727C354.941 88.0202 356.474 85.0898 358.097 80.5815L360.532 74.0895H363.101L359.72 83.9627C358.458 87.7497 356.79 90.6351 354.716 92.6187C352.732 94.6024 350.568 95.9549 348.224 96.6763C345.97 97.4878 343.715 97.8935 341.461 97.8935C338.846 97.8935 336.637 97.4427 334.834 96.541C333.031 95.7295 331.633 94.5573 330.641 93.0245C329.469 91.2212 328.928 88.9219 329.018 86.1267C329.199 83.3316 329.92 80.0856 331.182 76.3887L343.355 39.8712ZM414.016 26.8872C411.942 26.8872 409.733 28.1496 407.388 30.6742C405.134 33.1087 402.88 36.3998 400.626 40.5475C398.462 44.6952 396.478 49.3387 394.675 54.4782C392.962 59.6177 391.564 64.9376 390.482 70.4377C389.49 75.8477 388.994 81.0323 388.994 85.9915C388.994 89.2375 389.355 91.5818 390.076 93.0245C390.888 94.4672 392.06 95.1885 393.593 95.1885C395.667 95.1885 397.831 94.0163 400.085 91.672C402.339 89.2375 404.548 85.9915 406.712 81.934C408.876 77.8765 410.815 73.3231 412.528 68.2737C414.331 63.1342 415.774 57.8144 416.856 52.3142C417.938 46.8141 418.479 41.4942 418.479 36.3547C418.479 32.5677 418.073 30.0431 417.262 28.7807C416.54 27.5184 415.458 26.8872 414.016 26.8872ZM370.871 75.5772C370.871 71.4296 371.412 67.0114 372.494 62.3227C373.666 57.6341 375.424 53.0356 377.769 48.5272C380.113 44.0189 382.998 39.9614 386.425 36.3547C389.941 32.6579 394.044 29.7275 398.732 27.5635C403.511 25.3093 408.831 24.1822 414.692 24.1822C421.635 24.1822 427 26.0757 430.787 29.8627C434.664 33.6497 436.602 39.195 436.602 46.4985C436.602 50.6462 436.016 55.0643 434.844 59.753C433.762 64.4417 432.049 69.0402 429.705 73.5485C427.36 78.0568 424.43 82.1594 420.913 85.8562C417.487 89.4629 413.384 92.3933 408.606 94.6475C403.917 96.8115 398.642 97.8935 392.781 97.8935C385.838 97.8935 380.428 96 376.551 92.213C372.764 88.426 370.871 82.8807 370.871 75.5772ZM462.069 96H442.999L459.364 37.572C459.815 36.3097 460.086 35.1826 460.176 34.1907C460.356 33.1087 460.266 32.2972 459.905 31.7562C459.545 31.1251 458.869 30.8095 457.877 30.8095C456.254 30.8095 454.766 31.5759 453.413 33.1087C452.151 34.5514 450.754 37.3466 449.221 41.4942L446.651 48.392H444.081L447.733 38.113C449.536 32.9735 451.881 29.3668 454.766 27.293C457.741 25.2192 461.213 24.1822 465.18 24.1822C468.426 24.1822 470.906 24.7683 472.619 25.9405C474.332 27.0225 475.459 28.5102 476 30.4037C476.631 32.2972 476.857 34.3711 476.676 36.6252C476.586 38.7892 476.271 40.9532 475.73 43.1172L462.069 96ZM466.397 73.1427C469.914 63.3146 473.16 55.2447 476.135 48.933C479.201 42.5312 482.177 37.5269 485.062 33.9202C488.037 30.3136 491.058 27.7889 494.124 26.3462C497.189 24.9036 500.48 24.1822 503.997 24.1822C508.325 24.1822 511.436 25.129 513.329 27.0225C515.223 28.916 516.169 31.4407 516.169 34.5965C516.169 37.6622 515.583 40.9983 514.411 44.605L501.157 84.5037C500.255 87.0284 500.03 88.7867 500.48 89.7785C500.931 90.7703 501.743 91.2662 502.915 91.2662C504.087 91.2662 505.395 90.6351 506.837 89.3727C508.28 88.0202 509.813 85.0898 511.436 80.5815L513.87 74.0895H516.44L513.059 83.9627C511.796 87.7497 510.128 90.6351 508.054 92.6187C506.071 94.6024 503.907 95.9549 501.562 96.6763C499.308 97.4878 497.099 97.8935 494.935 97.8935C492.32 97.8935 490.111 97.4878 488.308 96.6763C486.505 95.9549 485.107 94.8729 484.115 93.4302C482.943 91.6269 482.357 89.3727 482.357 86.6677C482.447 83.8726 483.168 80.4462 484.521 76.3887L496.693 39.8712C497.234 38.4286 497.595 37.031 497.775 35.6785C497.956 34.326 497.911 33.1989 497.64 32.2972C497.37 31.3956 496.603 30.9447 495.341 30.9447C493.628 30.9447 491.689 32.0718 489.525 34.326C487.361 36.49 485.062 39.5557 482.627 43.523C480.283 47.4002 477.939 51.9536 475.594 57.1832C473.25 62.4129 470.996 68.0032 468.832 73.9542C466.668 79.8151 464.729 85.8562 463.016 92.0777L466.397 73.1427ZM563.85 87.7497L549.379 104.115L538.559 37.7072C538.108 35.2727 537.657 33.6047 537.206 32.703C536.755 31.8013 536.034 31.3505 535.042 31.3505C534.14 31.3505 533.239 31.9817 532.337 33.244C531.435 34.4162 530.218 37.1212 528.685 41.359L526.251 47.9862H523.681L527.062 38.113C528.956 32.6128 531.345 28.916 534.231 27.0225C537.116 25.129 540.272 24.1822 543.698 24.1822C547.395 24.1822 550.37 25.2192 552.625 27.293C554.879 29.2767 556.412 33.1087 557.223 38.7892L563.85 87.7497ZM531.526 114.8C535.763 112.726 540.137 109.886 544.645 106.279C549.153 102.763 553.752 97.9837 558.44 91.9425C563.49 85.721 567.908 79.0036 571.695 71.7902C575.482 64.4867 578.277 57.4988 580.08 50.8265C577.916 49.5642 575.843 48.0764 573.859 46.3632C571.965 44.5599 570.433 42.5762 569.26 40.4122C568.088 38.2482 567.547 35.9039 567.637 33.3792C567.637 30.4939 568.449 28.2397 570.072 26.6167C571.695 24.9937 573.904 24.1822 576.699 24.1822C579.855 24.1822 582.109 25.2642 583.462 27.4282C584.904 29.5922 585.626 32.6128 585.626 36.49C585.626 40.7278 584.904 45.3714 583.462 50.4207C582.019 55.4701 580.035 60.6997 577.511 66.1097C574.986 71.4296 572.146 76.6142 568.99 81.6635C565.834 86.7128 562.498 91.3113 558.981 95.459C556.186 98.9755 553.03 102.267 549.514 105.332C546.088 108.398 542.436 111.148 538.559 113.583C534.772 116.017 530.804 117.956 526.657 119.398C524.673 120.12 522.87 120.616 521.247 120.886C519.624 121.247 518.226 121.427 517.054 121.427C514.169 121.427 511.914 120.751 510.291 119.398C508.578 118.136 507.722 116.288 507.722 113.853C507.722 111.509 508.623 109.525 510.427 107.902C512.14 106.279 514.349 105.468 517.054 105.468C519.939 105.468 522.554 106.279 524.898 107.902C527.333 109.615 529.542 111.914 531.526 114.8Z" fill="#EBE0C6"/>
</svg>
