<svg width="72" height="65" viewBox="0 0 72 65" fill="none" xmlns="http://www.w3.org/2000/svg">
<path d="M10.1468 0.739996C11.6028 0.739996 12.8628 1.272 13.9268 2.336C14.9908 3.4 15.5228 4.66 15.5228 6.116C15.5228 7.572 14.9908 8.832 13.9268 9.896C12.8628 10.96 11.6028 11.492 10.1468 11.492C8.69077 11.492 7.43077 10.96 6.36677 9.896C5.30277 8.832 4.77077 7.572 4.77077 6.116C4.77077 4.66 5.30277 3.4 6.36677 2.336C7.43077 1.272 8.69077 0.739996 10.1468 0.739996ZM14.5148 20.816V57.188C14.5148 59.54 14.9908 61.136 15.9428 61.976C16.9508 62.816 18.6028 63.236 20.8988 63.236V65C19.9468 64.944 18.4908 64.888 16.5308 64.832C14.6268 64.72 12.6948 64.664 10.7348 64.664C8.83077 64.664 6.89877 64.72 4.93877 64.832C2.97877 64.888 1.52277 64.944 0.570766 65V63.236C2.86677 63.236 4.49077 62.816 5.44277 61.976C6.45077 61.136 6.95477 59.54 6.95477 57.188V30.896C6.95477 28.376 6.50677 26.528 5.61077 25.352C4.71477 24.12 3.03477 23.504 0.570766 23.504V21.74C2.36277 21.908 4.09877 21.992 5.77877 21.992C7.40277 21.992 8.94277 21.908 10.3988 21.74C11.9108 21.516 13.2828 21.208 14.5148 20.816ZM53.4041 20.564C55.5321 20.564 57.2961 20.844 58.6961 21.404C60.1521 21.964 61.3561 22.748 62.3081 23.756C63.3721 24.876 64.1281 26.276 64.5761 27.956C65.0241 29.636 65.2481 31.904 65.2481 34.76V57.188C65.2481 59.54 65.7241 61.136 66.6761 61.976C67.6841 62.816 69.3361 63.236 71.6321 63.236V65C70.6801 64.944 69.2241 64.888 67.2641 64.832C65.3041 64.72 63.4001 64.664 61.5521 64.664C59.7041 64.664 57.8841 64.72 56.0921 64.832C54.3561 64.888 53.0401 64.944 52.1441 65V63.236C54.1601 63.236 55.5881 62.816 56.4281 61.976C57.2681 61.136 57.6881 59.54 57.6881 57.188V32.912C57.6881 31.176 57.5481 29.58 57.2681 28.124C56.9881 26.668 56.3441 25.492 55.3361 24.596C54.3841 23.7 52.9001 23.252 50.8841 23.252C48.5321 23.252 46.4601 23.924 44.6681 25.268C42.9321 26.612 41.5601 28.46 40.5521 30.812C39.6001 33.108 39.1241 35.684 39.1241 38.54V57.188C39.1241 59.54 39.5441 61.136 40.3841 61.976C41.2241 62.816 42.6521 63.236 44.6681 63.236V65C43.7721 64.944 42.4281 64.888 40.6361 64.832C38.9001 64.72 37.1081 64.664 35.2601 64.664C33.4121 64.664 31.5081 64.72 29.5481 64.832C27.5881 64.888 26.1321 64.944 25.1801 65V63.236C27.4761 63.236 29.1001 62.816 30.0521 61.976C31.0601 61.136 31.5641 59.54 31.5641 57.188V30.896C31.5641 28.376 31.1161 26.528 30.2201 25.352C29.3241 24.12 27.6441 23.504 25.1801 23.504V21.74C26.9721 21.908 28.7081 21.992 30.3881 21.992C32.0121 21.992 33.5521 21.908 35.0081 21.74C36.5201 21.516 37.8921 21.208 39.1241 20.816V30.728C40.5801 26.92 42.5961 24.288 45.1721 22.832C47.8041 21.32 50.5481 20.564 53.4041 20.564Z" fill="#EBE0C6"/>
</svg>
