<svg width="19" height="43" viewBox="0 0 19 43" fill="none" xmlns="http://www.w3.org/2000/svg">
<mask id="mask0_78_1384" style="mask-type:luminance" maskUnits="userSpaceOnUse" x="0" y="0" width="19" height="43">
<path d="M18.1641 0H5.72205e-06V42.2667H18.1641V0Z" fill="white"/>
</mask>
<g mask="url(#mask0_78_1384)">
<mask id="mask1_78_1384" style="mask-type:luminance" maskUnits="userSpaceOnUse" x="-3" y="-1" width="24" height="44">
<path d="M1.41095 -0.0368042L-2.17473 42.1621L16.7926 42.3296L20.3783 0.130752L1.41095 -0.0368042Z" fill="white"/>
</mask>
<g mask="url(#mask1_78_1384)">
<mask id="mask2_78_1384" style="mask-type:luminance" maskUnits="userSpaceOnUse" x="-3" y="-1" width="24" height="44">
<path d="M1.40911 -0.0368042L-2.17656 42.1621L16.7908 42.3296L20.3765 0.130752L1.40911 -0.0368042Z" fill="white"/>
</mask>
<g mask="url(#mask2_78_1384)">
<mask id="mask3_78_1384" style="mask-type:luminance" maskUnits="userSpaceOnUse" x="-3" y="-1" width="24" height="44">
<path d="M1.41082 -0.0298462L-2.17739 42.1862L16.79 42.3538L20.3782 0.13771L1.41082 -0.0298462Z" fill="white"/>
</mask>
<g mask="url(#mask3_78_1384)">
<mask id="mask4_78_1384" style="mask-type:luminance" maskUnits="userSpaceOnUse" x="-3" y="-1" width="24" height="44">
<path d="M1.40905 -0.0298462L-2.17662 42.1568L16.7907 42.3243L20.3764 0.13771L1.40905 -0.0298462Z" fill="white"/>
</mask>
<g mask="url(#mask4_78_1384)">
<path d="M10.8762 0.0531616C10.8635 0.0597004 10.8457 0.0637873 10.8305 0.0686912L10.7773 0.0825862L10.676 0.109559C10.6075 0.128358 10.5391 0.147157 10.4707 0.165956C10.3364 0.203554 10.2021 0.241969 10.0729 0.282019C9.80932 0.360485 9.55845 0.443037 9.31011 0.527224C8.81851 0.696415 8.35477 0.874597 7.91892 1.06013C7.04467 1.43039 6.27432 1.82763 5.59013 2.24039C4.90594 2.65233 4.31043 3.08062 3.79095 3.51872C3.27147 3.95682 2.82802 4.40391 2.45298 4.85754C1.70037 5.76398 1.21383 6.69167 0.927481 7.62426C0.638597 8.55767 0.552441 9.49517 0.620859 10.4302C0.686745 11.3653 0.914808 12.2979 1.25437 13.2239C1.42922 13.6874 1.62688 14.1492 1.86001 14.6085C1.97404 14.839 2.09568 15.0687 2.22238 15.2975C2.35161 15.5264 2.48592 15.7552 2.62529 15.9833C3.75041 17.8092 5.2607 19.605 7.02947 21.368C8.75515 23.0934 10.2933 24.8352 11.5274 26.5966C11.606 26.7069 11.6845 26.8164 11.758 26.9268L11.9759 27.2578L12.0849 27.4237L12.1406 27.5063L12.1913 27.5888L12.394 27.9207L12.4979 28.0866L12.5917 28.2533L12.7818 28.5852C12.8476 28.6963 12.9009 28.8075 12.9591 28.9186L13.134 29.2513L13.2936 29.5856C13.3443 29.6968 13.4026 29.8079 13.4482 29.9191L13.5901 30.2534C13.6408 30.3653 13.6763 30.4765 13.7219 30.5885C13.7624 30.6996 13.8106 30.8116 13.8486 30.9236L13.9576 31.2587C13.9956 31.3707 14.026 31.4827 14.0589 31.5946C14.0893 31.7066 14.1248 31.8178 14.1501 31.9298C14.2008 32.1537 14.2566 32.3785 14.292 32.6024C14.3377 32.8272 14.3605 33.0512 14.3883 33.2759C14.4314 33.7238 14.4365 34.1734 14.4086 34.6213C14.3757 35.07 14.2971 35.5179 14.1755 35.965C14.0513 36.4113 13.8815 36.8567 13.6509 37.2997C13.4229 37.7419 13.1391 38.1816 12.7868 38.6165L12.65 38.7791L12.5816 38.86L12.5055 38.941L12.3586 39.1028L12.2015 39.263L12.1229 39.3439C12.0976 39.3709 12.0672 39.397 12.0393 39.424L11.872 39.5842C11.7504 39.6897 11.6364 39.7959 11.5071 39.9005C11.3855 40.006 11.2512 40.1098 11.1169 40.2144L10.9066 40.3697C10.8381 40.4212 10.7621 40.4719 10.6912 40.5233C10.3947 40.7285 10.0779 40.9296 9.73583 41.1274C9.3912 41.3252 9.02376 41.5189 8.62085 41.7061C8.42066 41.8 8.21033 41.8916 7.98987 41.9807L7.82263 42.0477C7.76688 42.0698 7.71113 42.0918 7.65284 42.1131C7.53628 42.1564 7.41718 42.1989 7.29047 42.2398C7.87077 42.1057 8.39279 41.9447 8.88946 41.7763C9.38613 41.6088 9.84733 41.4298 10.2857 41.2451C10.7241 41.0595 11.1372 40.8675 11.5223 40.6705C11.9126 40.4735 12.2749 40.2708 12.6145 40.0648C12.7894 39.9618 12.949 39.8564 13.1137 39.7526L13.3468 39.594C13.3874 39.5671 13.4254 39.5409 13.4634 39.5139L13.5749 39.4346L13.7979 39.2736L14.0082 39.1118L14.1147 39.0309L14.2135 38.9491L14.4137 38.7857C14.9306 38.3476 15.3716 37.8997 15.7466 37.4469C16.4967 36.5396 16.9857 35.6119 17.2721 34.6793C17.4165 34.2126 17.5052 33.7451 17.561 33.2767C17.5762 33.043 17.6015 32.8092 17.599 32.5755C17.6091 32.3409 17.5888 32.1071 17.5787 31.8734C17.5103 30.9383 17.2873 30.0057 16.9503 29.0797L16.8109 28.7323C16.7653 28.617 16.7222 28.501 16.669 28.3857L16.5119 28.04L16.4333 27.8667L16.3446 27.6951L16.1698 27.3501L16.1267 27.2635L15.9823 27.006L15.7871 26.6628C15.7213 26.5483 15.6478 26.4339 15.5793 26.3203C14.4542 24.4935 12.9465 22.6986 11.1777 20.9348C9.44442 19.2102 7.90625 17.4676 6.6671 15.707C6.51252 15.4863 6.36301 15.2665 6.21857 15.0458C6.07413 14.8251 5.93223 14.6036 5.79792 14.3829C5.53185 13.9399 5.28097 13.4961 5.06051 13.0515C4.61199 12.163 4.26482 11.2688 4.03929 10.373C3.92779 9.9251 3.84417 9.47637 3.80109 9.02765C3.75294 8.57892 3.74788 8.1302 3.77828 7.68147C3.8467 6.78484 4.0773 5.88903 4.53596 5.00384C4.99716 4.11947 5.68389 3.24409 6.68991 2.40386C7.19418 1.98292 7.77955 1.57179 8.46627 1.1762C8.8109 0.9784 9.18087 0.785506 9.57872 0.597516C9.77891 0.502703 9.9867 0.41116 10.2046 0.320435C10.3136 0.27548 10.4226 0.230526 10.5366 0.186389L10.7089 0.120184L10.8381 0.0711433C10.8508 0.0654218 10.8686 0.0597004 10.8762 0.0531616Z" fill="#98783F"/>
</g>
</g>
</g>
</g>
</g>
</svg>
