<svg width="528" height="136" viewBox="0 0 528 136" fill="none" xmlns="http://www.w3.org/2000/svg">
<path d="M98.7061 123.812L57.4819 33.5727C57.4819 33.5727 57.4819 33.1399 57.4819 32.2743C57.4819 31.4087 57.4278 30.489 57.3196 29.5152C57.3196 28.4332 57.2655 27.4594 57.1573 26.5938C57.1573 25.7282 57.1573 25.2954 57.1573 25.2954C58.0229 21.292 58.2934 18.3706 57.9688 16.5312C57.7524 14.5836 56.6704 13.2852 54.7228 12.636C52.8834 11.8786 49.8538 11.4458 45.634 11.3376L46.4455 8.0916C48.1767 8.1998 50.2866 8.30799 52.7752 8.41619C55.372 8.52439 58.077 8.57849 60.8902 8.57849C65.9756 8.57849 70.3577 8.41619 74.0365 8.0916L108.444 86.9694C108.444 86.9694 108.282 87.8891 107.957 89.7285C107.633 91.4597 107.2 93.7319 106.659 96.5451C106.226 99.2501 105.793 102.226 105.36 105.472C104.928 108.609 104.441 111.585 103.9 114.398C103.467 117.103 103.088 119.375 102.764 121.215C102.439 122.946 102.277 123.812 102.277 123.812H98.7061ZM148.532 3.7095C145.719 3.7095 143.176 4.52099 140.904 6.14399C138.632 7.76699 136.63 9.82279 134.899 12.3114C129.922 19.669 124.836 32.5989 119.643 51.1011C114.449 69.6033 108.66 93.8401 102.277 123.812L100.004 119.267C101.627 112.018 103.359 104.227 105.198 95.8959C107.037 87.4563 108.985 79.0167 111.041 70.5771C113.205 62.1375 115.369 54.0766 117.533 46.3944C119.805 38.7122 122.131 31.8415 124.512 25.7823C127 19.6149 129.489 14.6918 131.978 11.013C134.033 8.09159 136.468 5.6571 139.281 3.7095C142.094 1.6537 145.503 0.625796 149.506 0.625796C154.483 0.625796 158.27 1.9783 160.867 4.68329C163.572 7.38829 164.924 10.6343 164.924 14.4213C164.924 18.5329 163.518 22.0494 160.705 24.9708C158 27.784 154.483 29.1906 150.155 29.1906C146.585 29.1906 143.825 28.325 141.878 26.5938C139.93 24.7544 138.956 22.4281 138.956 19.6149C138.956 15.9361 140.147 12.7442 142.527 10.0392C144.907 7.22599 147.775 5.33249 151.129 4.3587C150.913 4.14229 150.534 3.97999 149.993 3.87179C149.56 3.76359 149.073 3.7095 148.532 3.7095ZM16.9069 131.927C19.8283 131.927 22.4251 131.115 24.6973 129.492C26.9695 127.977 28.9171 125.867 30.5401 123.162C33.6779 118.185 36.8157 110.395 39.9535 99.7911C43.1995 89.1875 46.4455 76.3658 49.6915 61.326C53.0457 46.2862 56.3999 29.7857 59.7541 11.8245L62.5132 15.2328C60.782 24.1052 58.9426 33.1399 56.995 42.3369C55.1556 51.4257 53.2621 60.3522 51.3145 69.1164C49.3669 77.7724 47.3652 85.8333 45.3094 93.2991C43.2536 100.765 41.1978 107.257 39.142 112.775C37.0862 118.185 35.0845 122.189 33.1369 124.785C31.1893 127.382 28.863 129.708 26.158 131.764C23.5612 133.928 20.0988 135.01 15.7708 135.01C10.9018 135.01 7.16887 133.658 4.57206 130.953C1.86706 128.248 0.514565 125.002 0.514565 121.215C0.514565 116.995 1.92116 113.478 4.73437 110.665C7.54757 107.852 11.0641 106.445 15.2839 106.445C18.9627 106.445 21.7218 107.365 23.5612 109.204C25.5088 110.936 26.4826 113.208 26.4826 116.021C26.4826 119.7 25.2924 122.892 22.912 125.597C20.5316 128.302 17.6102 130.195 14.1478 131.277C14.4724 131.494 14.8511 131.656 15.2839 131.764C15.7167 131.872 16.2577 131.927 16.9069 131.927ZM161.249 116.508C162.98 116.508 164.873 115.588 166.929 113.749C168.985 111.909 171.095 109.259 173.259 105.796C175.423 102.226 177.533 97.8976 179.589 92.8122C181.644 87.7268 183.538 81.8299 185.269 75.1215L181.698 92.8122C178.993 100.819 176.018 107.203 172.772 111.964C169.526 116.724 166.064 120.133 162.385 122.188C158.706 124.244 154.865 125.272 150.861 125.272C144.802 125.272 140.258 123.487 137.228 119.916C134.199 116.346 132.684 111.477 132.684 105.309C132.684 99.4665 133.658 93.3532 135.605 86.9694C137.661 80.5856 140.366 74.4182 143.72 68.4672C147.183 62.5162 151.024 57.1603 155.244 52.3995C159.572 47.6387 164.116 43.8517 168.877 41.0385C173.746 38.2253 178.507 36.8187 183.159 36.8187C186.73 36.8187 189.489 38.2253 191.436 41.0385C193.384 43.8517 193.979 48.2338 193.222 54.1848L191.436 55.1586C191.977 51.2634 191.761 48.2338 190.787 46.0698C189.922 43.9058 188.407 42.8238 186.243 42.8238C184.079 42.8238 181.644 44.0681 178.939 46.5567C176.343 49.0453 173.746 52.4536 171.149 56.7816C168.552 61.1096 166.118 66.0327 163.845 71.5509C161.681 76.9609 159.95 82.6955 158.652 88.7547C157.353 94.7057 156.704 100.603 156.704 106.445C156.704 110.124 157.083 112.721 157.84 114.236C158.598 115.751 159.734 116.508 161.249 116.508ZM195.656 39.2532C200.309 39.145 204.529 38.9286 208.316 38.604C212.103 38.1712 215.727 37.5761 219.19 36.8187L197.928 109.204C197.604 110.611 197.333 111.964 197.117 113.262C197.009 114.452 197.171 115.426 197.604 116.183C198.145 116.941 199.01 117.319 200.201 117.319C201.607 117.319 203.176 116.508 204.907 114.885C206.639 113.154 208.424 109.691 210.263 104.498L213.185 96.7074H216.268L212.211 108.555C210.696 112.991 208.748 116.4 206.368 118.78C203.988 121.161 201.445 122.838 198.74 123.812C196.035 124.785 193.384 125.272 190.787 125.272C185.161 125.272 181.157 123.595 178.777 120.241C177.154 117.86 176.397 114.939 176.505 111.477C176.721 107.906 177.479 103.849 178.777 99.3042L195.656 39.2532ZM288.592 39.0909L288.105 42.3369H231.787L232.598 39.0909H288.592ZM249.965 109.204C249.207 112.018 249.261 114.073 250.127 115.372C251.101 116.67 252.507 117.319 254.347 117.319C256.619 117.319 258.891 116.183 261.163 113.911C263.435 111.639 265.437 108.122 267.168 103.362L269.603 96.7074H272.687L269.441 106.121C267.277 112.613 264.085 117.428 259.865 120.565C255.753 123.703 250.83 125.272 245.096 125.272C240.118 125.272 236.277 124.136 233.572 121.864C230.867 119.592 229.244 116.508 228.703 112.613C228.27 108.609 228.703 104.227 230.002 99.4665L254.347 14.9082C258.999 14.8 263.219 14.5836 267.006 14.259C270.793 13.9344 274.418 13.3934 277.88 12.636L249.965 109.204ZM344.348 66.0327C340.345 77.9347 336.504 87.7809 332.825 95.5713C329.146 103.253 325.522 109.259 321.951 113.587C318.489 117.806 314.918 120.836 311.239 122.675C307.56 124.407 303.665 125.272 299.554 125.272C295.009 125.272 291.493 124.298 289.004 122.351C286.624 120.403 285.271 117.59 284.947 113.911C284.73 110.232 285.433 105.85 287.056 100.765L302.8 52.8864C303.882 49.7486 304.098 47.6387 303.449 46.5567C302.908 45.3665 301.988 44.7714 300.69 44.7714C299.283 44.7714 297.714 45.5829 295.983 47.2059C294.252 48.7207 292.412 52.1831 290.465 57.5931L287.543 65.3835H284.46L288.517 53.5356C290.14 48.9912 292.142 45.5288 294.522 43.1484C297.011 40.768 299.608 39.145 302.313 38.2794C305.126 37.3056 307.777 36.8187 310.265 36.8187C315.134 36.8187 318.759 37.9007 321.139 40.0647C323.52 42.1205 324.818 45.096 325.035 48.9912C325.251 52.7782 324.494 57.3226 322.762 62.6244L308.155 106.445C305.775 113.587 306.316 117.157 309.778 117.157C311.834 117.157 314.161 115.805 316.757 113.1C319.354 110.395 322.059 106.662 324.872 101.901C327.794 97.1402 330.661 91.5679 333.474 85.1841C336.287 78.8003 338.992 71.9296 341.589 64.572C344.186 57.2144 346.458 49.6945 348.406 42.0123L344.348 66.0327ZM352.301 109.204C351.544 111.909 351.219 113.965 351.327 115.372C351.435 116.67 352.355 117.319 354.086 117.319C356.034 117.319 357.819 116.4 359.442 114.56C361.173 112.613 362.851 109.259 364.474 104.498L367.557 96.2205H370.641L366.259 108.555C364.852 112.775 362.959 116.129 360.578 118.618C358.306 120.998 355.763 122.675 352.95 123.649C350.245 124.731 347.432 125.272 344.511 125.272C341.589 125.272 339.101 124.785 337.045 123.812C335.097 122.838 333.582 121.485 332.5 119.754C331.418 117.698 330.932 115.264 331.04 112.45C331.256 109.529 331.797 106.229 332.663 102.55L349.055 39.0909C353.491 38.9827 357.657 38.7663 361.552 38.4417C365.556 38.1171 369.234 37.5761 372.589 36.8187L352.301 109.204ZM402.724 123H379.84L399.641 52.8864C400.398 49.965 400.615 47.9092 400.29 46.719C400.074 45.4206 399.262 44.7714 397.855 44.7714C395.908 44.7714 394.123 45.7452 392.5 47.6928C390.877 49.5322 389.145 52.8323 387.306 57.5931L384.222 65.8704H381.139L385.521 53.5356C387.144 49.2076 389.091 45.8534 391.363 43.473C393.636 41.0926 396.178 39.4155 398.992 38.4417C401.913 37.3597 404.888 36.8187 407.918 36.8187C411.38 36.8187 414.031 37.522 415.871 38.9286C417.71 40.227 418.954 42.0123 419.604 44.2845C420.253 46.5567 420.469 49.0453 420.253 51.7503C420.145 54.3471 419.766 56.9439 419.117 59.5407L402.724 123ZM444.273 40.3893C442.109 40.3893 439.783 41.0385 437.294 42.3369C434.806 43.6353 432.263 45.9616 429.666 49.3158C427.069 52.67 424.31 57.3226 421.389 63.2736C418.576 69.2246 415.654 76.8527 412.625 86.1579C409.703 95.3549 406.674 106.499 403.536 119.592L407.107 97.6812C410.569 85.7792 413.707 75.933 416.52 68.1426C419.333 60.3522 422.146 54.1848 424.96 49.6404C427.881 44.9878 430.911 41.6877 434.048 39.7401C437.294 37.7925 440.973 36.8187 445.085 36.8187C449.305 36.8187 452.551 38.063 454.823 40.5516C457.095 43.0402 458.231 46.178 458.231 49.965C458.231 52.9946 457.528 55.8078 456.121 58.4046C454.823 60.8932 452.983 62.949 450.603 64.572C448.331 66.0868 445.734 66.8442 442.813 66.8442C439.675 66.8442 437.24 66.0327 435.509 64.4097C433.778 62.6785 432.912 60.244 432.912 57.1062C432.912 54.5094 433.507 52.129 434.698 49.965C435.888 47.6928 437.511 45.7452 439.567 44.1222C441.622 42.4992 443.895 41.4172 446.383 40.8762C446.059 40.768 445.734 40.6598 445.409 40.5516C445.085 40.4434 444.706 40.3893 444.273 40.3893ZM472.685 87.7809C477.121 86.0497 481.341 84.1021 485.344 81.9381C489.347 79.7741 492.756 77.3937 495.569 74.7969C499.789 71.0099 503.143 66.6278 505.631 61.6506C508.228 56.5652 509.527 51.1011 509.527 45.2583C509.527 43.0943 509.31 41.6877 508.877 41.0385C508.445 40.2811 507.795 39.9024 506.93 39.9024C504.549 39.9024 501.953 41.1467 499.139 43.6353C496.434 46.0157 493.729 49.2617 491.024 53.3733C488.319 57.3767 485.831 61.9752 483.559 67.1688C481.395 72.3624 479.609 77.7724 478.203 83.3988C476.904 89.0252 476.255 94.4893 476.255 99.7911C476.255 105.85 477.391 110.016 479.663 112.288C482.044 114.452 485.073 115.534 488.752 115.534C491.674 115.534 495.298 114.56 499.626 112.613C503.954 110.665 508.228 107.203 512.448 102.226L515.045 103.524C512.773 107.095 509.797 110.557 506.118 113.911C502.44 117.265 498.166 120.024 493.297 122.188C488.428 124.244 483.126 125.272 477.391 125.272C472.522 125.272 468.14 124.407 464.245 122.675C460.458 120.944 457.428 118.401 455.156 115.047C452.992 111.585 451.91 107.365 451.91 102.388C451.91 96.6533 452.83 90.7564 454.669 84.6972C456.617 78.638 459.322 72.7952 462.784 67.1688C466.247 61.4342 470.412 56.2947 475.281 51.7503C480.15 47.0977 485.56 43.473 491.511 40.8762C497.462 38.1712 503.792 36.8187 510.5 36.8187C515.261 36.8187 519.265 37.9007 522.511 40.0647C525.757 42.1205 527.38 45.3124 527.38 49.6404C527.38 53.8602 526.189 57.8095 523.809 61.4883C521.537 65.1671 518.453 68.5213 514.558 71.5509C510.663 74.5805 506.281 77.2855 501.412 79.6659C496.651 82.0463 491.728 84.1021 486.642 85.8333C481.665 87.5645 476.958 88.917 472.522 89.8908L472.685 87.7809Z" fill="#EBE0C6"/>
</svg>
