<svg width="612" height="416" viewBox="0 0 612 416" fill="none" xmlns="http://www.w3.org/2000/svg">
<path d="M208.411 31.528C208.187 33.768 208.019 35.952 207.907 38.08C207.851 40.208 207.823 41.832 207.823 42.952C207.823 44.24 207.851 45.472 207.907 46.648C207.963 47.824 208.019 48.832 208.075 49.672H206.143C205.639 45.584 204.939 42.392 204.043 40.096C203.203 37.744 201.915 36.064 200.179 35.056C198.443 33.992 195.951 33.46 192.703 33.46H188.251C186.459 33.46 185.087 33.628 184.135 33.964C183.239 34.244 182.623 34.86 182.287 35.812C181.951 36.708 181.783 38.136 181.783 40.096V81.928C181.783 84 182.007 85.568 182.455 86.632C182.903 87.64 183.743 88.312 184.975 88.648C186.207 88.984 188.027 89.18 190.435 89.236V91C188.923 90.888 186.963 90.832 184.555 90.832C182.147 90.776 179.655 90.748 177.079 90.748C174.839 90.748 172.683 90.776 170.611 90.832C168.595 90.832 166.887 90.888 165.487 91V89.32C167.391 89.208 168.819 88.984 169.771 88.648C170.723 88.312 171.339 87.64 171.619 86.632C171.955 85.624 172.123 84.112 172.123 82.096V40.432C172.123 38.36 171.955 36.848 171.619 35.896C171.339 34.888 170.695 34.216 169.687 33.88C168.735 33.488 167.335 33.264 165.487 33.208V31.528C167.671 31.584 169.939 31.64 172.291 31.696C174.699 31.696 177.051 31.724 179.347 31.78C181.699 31.78 183.883 31.78 185.899 31.78C187.915 31.78 189.567 31.78 190.855 31.78C193.431 31.78 196.343 31.78 199.591 31.78C202.895 31.724 205.835 31.64 208.411 31.528ZM195.559 60.928C195.559 60.928 195.559 61.208 195.559 61.768C195.559 62.328 195.559 62.608 195.559 62.608H179.263C179.263 62.608 179.263 62.328 179.263 61.768C179.263 61.208 179.263 60.928 179.263 60.928H195.559ZM197.323 49.84C197.099 53.032 196.987 55.468 196.987 57.148C197.043 58.828 197.071 60.368 197.071 61.768C197.071 63.168 197.099 64.708 197.155 66.388C197.211 68.068 197.351 70.504 197.575 73.696H195.643C195.419 71.848 195.083 70.084 194.635 68.404C194.187 66.668 193.375 65.268 192.199 64.204C191.023 63.14 189.259 62.608 186.907 62.608V60.928C188.699 60.928 190.099 60.564 191.107 59.836C192.171 59.108 192.983 58.156 193.543 56.98C194.103 55.804 194.495 54.6 194.719 53.368C194.999 52.08 195.223 50.904 195.391 49.84H197.323ZM223.039 26.488C224.775 26.488 226.231 27.048 227.407 28.168C228.583 29.232 229.171 30.576 229.171 32.2C229.171 33.824 228.583 35.196 227.407 36.316C226.231 37.38 224.775 37.912 223.039 37.912C221.303 37.912 219.847 37.38 218.671 36.316C217.495 35.196 216.907 33.824 216.907 32.2C216.907 30.576 217.495 29.232 218.671 28.168C219.847 27.048 221.303 26.488 223.039 26.488ZM228.079 46.732V83.188C228.079 85.54 228.527 87.136 229.423 87.976C230.375 88.816 231.943 89.236 234.127 89.236V91C233.175 90.944 231.691 90.888 229.675 90.832C227.715 90.72 225.699 90.664 223.627 90.664C221.667 90.664 219.651 90.72 217.579 90.832C215.507 90.888 213.967 90.944 212.959 91V89.236C215.143 89.236 216.683 88.816 217.579 87.976C218.531 87.136 219.007 85.54 219.007 83.188V56.812C219.007 54.292 218.587 52.444 217.747 51.268C216.907 50.036 215.311 49.42 212.959 49.42V47.656C214.751 47.824 216.487 47.908 218.167 47.908C220.071 47.908 221.835 47.824 223.459 47.656C225.139 47.432 226.679 47.124 228.079 46.732ZM267.375 46.48C269.615 46.48 271.435 46.788 272.835 47.404C274.291 47.964 275.495 48.748 276.447 49.756C277.455 50.82 278.155 52.192 278.547 53.872C278.995 55.552 279.219 57.82 279.219 60.676V83.188C279.219 85.54 279.667 87.136 280.563 87.976C281.515 88.816 283.083 89.236 285.267 89.236V91C284.315 90.944 282.831 90.888 280.815 90.832C278.799 90.72 276.811 90.664 274.851 90.664C272.947 90.664 271.043 90.72 269.139 90.832C267.291 90.888 265.891 90.944 264.939 91V89.236C266.843 89.236 268.187 88.816 268.971 87.976C269.755 87.136 270.147 85.54 270.147 83.188V58.324C270.147 56.7 270.007 55.244 269.727 53.956C269.447 52.612 268.859 51.548 267.963 50.764C267.067 49.924 265.723 49.504 263.931 49.504C261.859 49.504 260.011 50.092 258.387 51.268C256.819 52.444 255.559 54.068 254.607 56.14C253.711 58.156 253.263 60.424 253.263 62.944V83.188C253.263 85.54 253.655 87.136 254.439 87.976C255.279 88.816 256.623 89.236 258.471 89.236V91C257.575 90.944 256.203 90.888 254.355 90.832C252.563 90.72 250.687 90.664 248.727 90.664C246.823 90.664 244.835 90.72 242.763 90.832C240.691 90.888 239.151 90.944 238.143 91V89.236C240.327 89.236 241.867 88.816 242.763 87.976C243.715 87.136 244.191 85.54 244.191 83.188V56.812C244.191 54.292 243.771 52.444 242.931 51.268C242.091 50.036 240.495 49.42 238.143 49.42V47.656C239.935 47.824 241.671 47.908 243.351 47.908C245.255 47.908 247.019 47.824 248.643 47.656C250.323 47.432 251.863 47.124 253.263 46.732V55.888C254.719 52.416 256.707 49.98 259.227 48.58C261.803 47.18 264.519 46.48 267.375 46.48ZM328.068 25.144V81.844C328.068 84.364 328.488 86.24 329.328 87.472C330.224 88.648 331.82 89.236 334.116 89.236V91C332.38 90.832 330.644 90.748 328.908 90.748C327.004 90.748 325.212 90.832 323.532 91C321.908 91.168 320.396 91.476 318.996 91.924V35.224C318.996 32.704 318.548 30.856 317.652 29.68C316.812 28.448 315.244 27.832 312.948 27.832V26.068C314.74 26.236 316.476 26.32 318.156 26.32C320.004 26.32 321.768 26.236 323.448 26.068C325.128 25.844 326.668 25.536 328.068 25.144ZM309.168 46.48C311.632 46.48 313.872 47.012 315.888 48.076C317.96 49.14 319.416 50.932 320.256 53.452L319.248 54.376C318.464 52.36 317.316 50.904 315.804 50.008C314.292 49.056 312.584 48.58 310.68 48.58C307.488 48.58 304.884 50.288 302.868 53.704C300.852 57.064 299.872 62.272 299.928 69.328C299.928 73.976 300.32 77.784 301.104 80.752C301.888 83.664 303.036 85.82 304.548 87.22C306.116 88.62 307.992 89.32 310.176 89.32C312.36 89.32 314.32 88.396 316.056 86.548C317.848 84.7 318.912 82.04 319.248 78.568L320.004 80.332C319.444 84.14 318.1 87.08 315.972 89.152C313.844 91.168 310.988 92.176 307.404 92.176C303.988 92.176 300.964 91.364 298.332 89.74C295.756 88.06 293.768 85.54 292.368 82.18C290.968 78.764 290.268 74.48 290.268 69.328C290.268 64.232 291.108 60.004 292.788 56.644C294.524 53.228 296.82 50.68 299.676 49C302.532 47.32 305.696 46.48 309.168 46.48Z" fill="#EBE0C6"/>
<path d="M62.7486 144.203L63.6953 141.498H111.439L110.357 144.203H62.7486ZM113.873 109.579C114.775 106.243 115.135 103.809 114.955 102.276C114.865 100.653 114.098 99.571 112.656 99.03C111.213 98.3988 108.959 98.0382 105.893 97.948L106.57 95.243C109.004 95.3332 112.16 95.4233 116.037 95.5135C119.914 95.6037 123.791 95.6487 127.669 95.6487C132.087 95.6487 136.279 95.6037 140.247 95.5135C144.214 95.4233 147.46 95.3332 149.985 95.243L149.309 97.948C146.243 98.0382 143.853 98.3988 142.14 99.03C140.427 99.571 139.075 100.653 138.083 102.276C137.181 103.809 136.279 106.243 135.378 109.579L117.525 176.663C116.713 179.909 116.353 182.344 116.443 183.967C116.533 185.59 117.299 186.672 118.742 187.213C120.185 187.754 122.439 188.115 125.505 188.295L124.964 191C122.529 190.82 119.328 190.729 115.361 190.729C111.394 190.639 107.201 190.594 102.783 190.594C98.9054 190.594 94.9832 190.639 91.0158 190.729C87.1387 190.729 83.9828 190.82 81.5483 191L82.0893 188.295C85.155 188.115 87.5444 187.754 89.2576 187.213C90.9707 186.672 92.3232 185.59 93.3151 183.967C94.3069 182.344 95.2086 179.909 96.0201 176.663L113.873 109.579ZM60.7198 176.663C59.9083 179.909 59.5477 182.344 59.6378 183.967C59.728 185.59 60.4944 186.672 61.9371 187.213C63.3797 187.754 65.6339 188.115 68.6996 188.295L68.1586 191C65.6339 190.82 62.433 190.729 58.5558 190.729C54.7688 190.639 50.8917 190.594 46.9243 190.594C42.416 190.594 38.2232 190.639 34.3461 190.729C30.4689 190.729 27.3131 190.82 24.8786 191L25.5548 188.295C28.5303 188.115 30.8296 187.754 32.4526 187.213C34.1657 186.672 35.5182 185.59 36.5101 183.967C37.5019 182.344 38.4036 179.909 39.2151 176.663L57.0681 109.579C57.9697 106.243 58.3304 103.809 58.1501 102.276C57.9697 100.653 57.1582 99.571 55.7156 99.03C54.3631 98.3988 52.154 98.0382 49.0883 97.948L49.7646 95.243C52.0187 95.3332 55.1295 95.4233 59.0968 95.5135C63.0642 95.6037 67.302 95.6487 71.8103 95.6487C75.7777 95.6487 79.6097 95.6037 83.3066 95.5135C87.0936 95.4233 90.3847 95.3332 93.1798 95.243L92.5036 97.948C89.4379 98.0382 87.0485 98.3988 85.3353 99.03C83.6222 99.571 82.2697 100.653 81.2778 102.276C80.3762 103.809 79.4745 106.243 78.5728 109.579L60.7198 176.663ZM162.134 185.59C163.577 185.59 165.155 184.824 166.868 183.291C168.581 181.758 170.339 179.549 172.143 176.663C173.946 173.688 175.704 170.081 177.417 165.843C179.131 161.606 180.708 156.692 182.151 151.101L179.176 165.843C176.921 172.516 174.442 177.836 171.737 181.803C169.032 185.77 166.146 188.611 163.081 190.324C160.015 192.037 156.814 192.894 153.478 192.894C148.429 192.894 144.642 191.406 142.117 188.43C139.592 185.455 138.33 181.397 138.33 176.258C138.33 171.389 139.142 166.294 140.765 160.974C142.478 155.655 144.732 150.515 147.527 145.556C150.412 140.597 153.613 136.134 157.13 132.166C160.736 128.199 164.523 125.043 168.491 122.699C172.548 120.354 176.516 119.182 180.393 119.182C183.368 119.182 185.668 120.354 187.291 122.699C188.914 125.043 189.409 128.695 188.778 133.654L187.291 134.465C187.741 131.219 187.561 128.695 186.75 126.891C186.028 125.088 184.766 124.186 182.963 124.186C181.159 124.186 179.131 125.223 176.876 127.297C174.712 129.371 172.548 132.211 170.384 135.818C168.22 139.425 166.192 143.527 164.298 148.126C162.495 152.634 161.052 157.413 159.97 162.462C158.888 167.421 158.347 172.335 158.347 177.204C158.347 180.27 158.663 182.434 159.294 183.696C159.925 184.959 160.872 185.59 162.134 185.59ZM190.807 121.211C194.684 121.121 198.201 120.94 201.357 120.67C204.512 120.309 207.533 119.813 210.418 119.182L192.701 179.504C192.43 180.676 192.205 181.803 192.024 182.885C191.934 183.877 192.069 184.688 192.43 185.319C192.881 185.951 193.602 186.266 194.594 186.266C195.766 186.266 197.074 185.59 198.516 184.237C199.959 182.795 201.447 179.909 202.98 175.581L205.414 169.089H207.984L204.603 178.963C203.34 182.66 201.717 185.5 199.734 187.483C197.75 189.467 195.631 190.865 193.377 191.676C191.123 192.488 188.914 192.894 186.75 192.894C182.061 192.894 178.725 191.496 176.741 188.701C175.389 186.717 174.757 184.283 174.848 181.397C175.028 178.422 175.659 175.04 176.741 171.253L190.807 121.211ZM234.982 191H215.912L232.412 132.572C233.043 130.137 233.224 128.424 232.953 127.432C232.773 126.35 232.097 125.809 230.925 125.809C229.302 125.809 227.814 126.621 226.461 128.244C225.109 129.777 223.666 132.527 222.133 136.494L219.564 143.392H216.994L220.646 133.113C221.998 129.506 223.621 126.711 225.515 124.727C227.408 122.744 229.527 121.346 231.871 120.535C234.306 119.633 236.785 119.182 239.31 119.182C242.195 119.182 244.404 119.768 245.937 120.94C247.47 122.022 248.507 123.51 249.048 125.404C249.589 127.297 249.769 129.371 249.589 131.625C249.499 133.789 249.183 135.953 248.642 138.117L234.982 191ZM269.606 122.158C267.803 122.158 265.864 122.699 263.79 123.781C261.716 124.863 259.598 126.801 257.434 129.596C255.27 132.392 252.97 136.269 250.536 141.228C248.191 146.187 245.757 152.544 243.232 160.298C240.798 167.962 238.273 177.25 235.658 188.16L238.634 169.901C241.519 159.983 244.134 151.777 246.478 145.285C248.823 138.793 251.167 133.654 253.511 129.867C255.946 125.99 258.47 123.24 261.085 121.617C263.79 119.994 266.856 119.182 270.282 119.182C273.799 119.182 276.504 120.219 278.397 122.293C280.291 124.367 281.238 126.982 281.238 130.137C281.238 132.662 280.651 135.006 279.479 137.17C278.397 139.244 276.864 140.957 274.881 142.31C272.987 143.572 270.823 144.203 268.389 144.203C265.774 144.203 263.745 143.527 262.303 142.175C260.86 140.732 260.139 138.703 260.139 136.088C260.139 133.924 260.634 131.941 261.626 130.137C262.618 128.244 263.971 126.621 265.684 125.268C267.397 123.916 269.29 123.014 271.364 122.563C271.094 122.473 270.823 122.383 270.553 122.293C270.282 122.203 269.967 122.158 269.606 122.158ZM298.513 191H279.442L295.943 132.572C296.303 131.4 296.484 130.318 296.484 129.326C296.574 128.244 296.484 127.387 296.213 126.756C295.943 126.125 295.267 125.809 294.185 125.809C292.652 125.809 291.209 126.621 289.857 128.244C288.504 129.867 287.106 132.617 285.664 136.494L283.094 143.392H280.524L284.176 133.113C285.529 129.506 287.152 126.711 289.045 124.727C290.939 122.744 293.057 121.346 295.402 120.535C297.746 119.633 300.09 119.182 302.435 119.182C305.5 119.182 307.845 119.768 309.468 120.94C311.091 122.022 312.173 123.51 312.714 125.404C313.255 127.297 313.435 129.371 313.255 131.625C313.074 133.789 312.714 135.953 312.173 138.117L298.513 191ZM331.243 134.871C331.694 133.338 332.009 131.986 332.19 130.814C332.46 129.551 332.46 128.56 332.19 127.838C331.919 127.117 331.243 126.756 330.161 126.756C328.087 126.756 325.878 128.019 323.534 130.543C321.189 132.978 318.755 136.449 316.23 140.957C313.796 145.466 311.361 150.831 308.927 157.052C306.492 163.274 304.193 170.081 302.029 177.475L302.705 168.143C306.492 156.151 310.189 146.593 313.796 139.47C317.402 132.256 321.28 127.072 325.427 123.916C329.575 120.76 334.264 119.182 339.493 119.182C342.469 119.182 344.723 119.723 346.256 120.805C347.879 121.887 348.961 123.375 349.502 125.268C350.043 127.162 350.178 129.326 349.908 131.76C349.727 134.195 349.276 136.81 348.555 139.605L334.083 191H314.743L331.243 134.871ZM367.355 134.871C368.166 132.527 368.527 130.588 368.437 129.055C368.437 127.523 367.806 126.756 366.543 126.756C364.83 126.756 362.846 127.838 360.592 130.002C358.428 132.076 356.084 135.277 353.559 139.605C351.035 143.843 348.42 149.253 345.715 155.835C343.01 162.327 340.305 169.991 337.6 178.827L337.87 171.524C341.116 161.245 344.182 152.724 347.067 145.962C350.043 139.199 353.018 133.879 355.994 130.002C359.059 126.035 362.215 123.24 365.461 121.617C368.707 119.994 372.179 119.182 375.876 119.182C379.753 119.182 382.548 120.129 384.261 122.022C385.974 123.826 386.831 126.26 386.831 129.326C386.921 132.392 386.335 135.818 385.073 139.605L371.818 179.504C370.916 182.119 370.691 183.922 371.142 184.914C371.683 185.815 372.494 186.266 373.576 186.266C374.748 186.266 376.056 185.635 377.499 184.373C378.941 183.02 380.474 180.09 382.097 175.581L384.532 169.089H387.101L383.72 178.963C382.458 182.75 380.79 185.635 378.716 187.619C376.732 189.602 374.568 190.955 372.224 191.676C369.97 192.488 367.715 192.894 365.461 192.894C362.846 192.894 360.637 192.443 358.834 191.541C357.031 190.729 355.633 189.557 354.641 188.024C353.469 186.221 352.928 183.922 353.018 181.127C353.199 178.332 353.92 175.086 355.182 171.389L367.355 134.871ZM438.016 121.887C435.942 121.887 433.733 123.15 431.388 125.674C429.134 128.109 426.88 131.4 424.626 135.547C422.462 139.695 420.478 144.339 418.675 149.478C416.962 154.618 415.564 159.938 414.482 165.438C413.49 170.848 412.994 176.032 412.994 180.991C412.994 184.237 413.355 186.582 414.076 188.024C414.888 189.467 416.06 190.188 417.593 190.188C419.667 190.188 421.831 189.016 424.085 186.672C426.339 184.237 428.548 180.991 430.712 176.934C432.876 172.876 434.815 168.323 436.528 163.274C438.331 158.134 439.774 152.814 440.856 147.314C441.938 141.814 442.479 136.494 442.479 131.355C442.479 127.568 442.073 125.043 441.262 123.781C440.54 122.518 439.458 121.887 438.016 121.887ZM394.871 170.577C394.871 166.43 395.412 162.011 396.494 157.323C397.666 152.634 399.424 148.036 401.769 143.527C404.113 139.019 406.998 134.961 410.425 131.355C413.941 127.658 418.044 124.727 422.732 122.563C427.511 120.309 432.831 119.182 438.692 119.182C445.635 119.182 451 121.076 454.787 124.863C458.664 128.65 460.602 134.195 460.602 141.498C460.602 145.646 460.016 150.064 458.844 154.753C457.762 159.442 456.049 164.04 453.705 168.548C451.36 173.057 448.43 177.159 444.913 180.856C441.487 184.463 437.384 187.393 432.606 189.647C427.917 191.812 422.642 192.894 416.781 192.894C409.838 192.894 404.428 191 400.551 187.213C396.764 183.426 394.871 177.881 394.871 170.577ZM486.069 191H466.999L483.364 132.572C483.815 131.31 484.086 130.183 484.176 129.191C484.356 128.109 484.266 127.297 483.905 126.756C483.545 126.125 482.869 125.809 481.877 125.809C480.254 125.809 478.766 126.576 477.413 128.109C476.151 129.551 474.754 132.347 473.221 136.494L470.651 143.392H468.081L471.733 133.113C473.536 127.973 475.881 124.367 478.766 122.293C481.741 120.219 485.213 119.182 489.18 119.182C492.426 119.182 494.906 119.768 496.619 120.94C498.332 122.022 499.459 123.51 500 125.404C500.631 127.297 500.857 129.371 500.676 131.625C500.586 133.789 500.271 135.953 499.73 138.117L486.069 191ZM490.397 168.143C493.914 158.315 497.16 150.245 500.135 143.933C503.201 137.531 506.177 132.527 509.062 128.92C512.037 125.314 515.058 122.789 518.124 121.346C521.189 119.904 524.48 119.182 527.997 119.182C532.325 119.182 535.436 120.129 537.329 122.022C539.223 123.916 540.169 126.441 540.169 129.596C540.169 132.662 539.583 135.998 538.411 139.605L525.157 179.504C524.255 182.028 524.03 183.787 524.48 184.778C524.931 185.77 525.743 186.266 526.915 186.266C528.087 186.266 529.395 185.635 530.837 184.373C532.28 183.02 533.813 180.09 535.436 175.581L537.87 169.089H540.44L537.059 178.963C535.796 182.75 534.128 185.635 532.054 187.619C530.071 189.602 527.907 190.955 525.562 191.676C523.308 192.488 521.099 192.894 518.935 192.894C516.32 192.894 514.111 192.488 512.308 191.676C510.505 190.955 509.107 189.873 508.115 188.43C506.943 186.627 506.357 184.373 506.357 181.668C506.447 178.873 507.168 175.446 508.521 171.389L520.693 134.871C521.234 133.429 521.595 132.031 521.775 130.678C521.956 129.326 521.911 128.199 521.64 127.297C521.37 126.396 520.603 125.945 519.341 125.945C517.628 125.945 515.689 127.072 513.525 129.326C511.361 131.49 509.062 134.556 506.627 138.523C504.283 142.4 501.939 146.954 499.594 152.183C497.25 157.413 494.996 163.003 492.832 168.954C490.668 174.815 488.729 180.856 487.016 187.078L490.397 168.143ZM587.85 182.75L573.379 199.115L562.559 132.707C562.108 130.273 561.657 128.605 561.206 127.703C560.755 126.801 560.034 126.35 559.042 126.35C558.14 126.35 557.239 126.982 556.337 128.244C555.435 129.416 554.218 132.121 552.685 136.359L550.251 142.986H547.681L551.062 133.113C552.956 127.613 555.345 123.916 558.231 122.022C561.116 120.129 564.272 119.182 567.698 119.182C571.395 119.182 574.37 120.219 576.625 122.293C578.879 124.277 580.412 128.109 581.223 133.789L587.85 182.75ZM555.526 209.8C559.763 207.726 564.137 204.886 568.645 201.279C573.153 197.763 577.752 192.984 582.44 186.942C587.49 180.721 591.908 174.004 595.695 166.79C599.482 159.487 602.277 152.499 604.08 145.826C601.916 144.564 599.843 143.076 597.859 141.363C595.965 139.56 594.433 137.576 593.26 135.412C592.088 133.248 591.547 130.904 591.637 128.379C591.637 125.494 592.449 123.24 594.072 121.617C595.695 119.994 597.904 119.182 600.699 119.182C603.855 119.182 606.109 120.264 607.462 122.428C608.904 124.592 609.626 127.613 609.626 131.49C609.626 135.728 608.904 140.371 607.462 145.421C606.019 150.47 604.035 155.7 601.511 161.11C598.986 166.43 596.146 171.614 592.99 176.663C589.834 181.713 586.498 186.311 582.981 190.459C580.186 193.976 577.03 197.267 573.514 200.332C570.088 203.398 566.436 206.148 562.559 208.583C558.772 211.017 554.804 212.956 550.657 214.398C548.673 215.12 546.87 215.616 545.247 215.886C543.624 216.247 542.226 216.427 541.054 216.427C538.169 216.427 535.914 215.751 534.291 214.398C532.578 213.136 531.722 211.288 531.722 208.853C531.722 206.509 532.623 204.525 534.427 202.902C536.14 201.279 538.349 200.468 541.054 200.468C543.939 200.468 546.554 201.279 548.898 202.902C551.333 204.615 553.542 206.914 555.526 209.8Z" fill="#EBE0C6"/>
<path d="M98.7061 375.812L57.4819 285.573C57.4819 285.573 57.4819 285.14 57.4819 284.274C57.4819 283.409 57.4278 282.489 57.3196 281.515C57.3196 280.433 57.2655 279.459 57.1573 278.594C57.1573 277.728 57.1573 277.295 57.1573 277.295C58.0229 273.292 58.2934 270.371 57.9688 268.531C57.7524 266.584 56.6704 265.285 54.7228 264.636C52.8834 263.879 49.8538 263.446 45.634 263.338L46.4455 260.092C48.1767 260.2 50.2866 260.308 52.7752 260.416C55.372 260.524 58.077 260.578 60.8902 260.578C65.9756 260.578 70.3577 260.416 74.0365 260.092L108.444 338.969C108.444 338.969 108.282 339.889 107.957 341.728C107.633 343.46 107.2 345.732 106.659 348.545C106.226 351.25 105.793 354.226 105.36 357.472C104.928 360.609 104.441 363.585 103.9 366.398C103.467 369.103 103.088 371.375 102.764 373.215C102.439 374.946 102.277 375.812 102.277 375.812H98.7061ZM148.532 255.709C145.719 255.709 143.176 256.521 140.904 258.144C138.632 259.767 136.63 261.823 134.899 264.311C129.922 271.669 124.836 284.599 119.643 303.101C114.449 321.603 108.66 345.84 102.277 375.812L100.004 371.267C101.627 364.018 103.359 356.227 105.198 347.896C107.037 339.456 108.985 331.017 111.041 322.577C113.205 314.137 115.369 306.077 117.533 298.394C119.805 290.712 122.131 283.841 124.512 277.782C127 271.615 129.489 266.692 131.978 263.013C134.033 260.092 136.468 257.657 139.281 255.709C142.094 253.654 145.503 252.626 149.506 252.626C154.483 252.626 158.27 253.978 160.867 256.683C163.572 259.388 164.924 262.634 164.924 266.421C164.924 270.533 163.518 274.049 160.705 276.971C158 279.784 154.483 281.191 150.155 281.191C146.585 281.191 143.825 280.325 141.878 278.594C139.93 276.754 138.956 274.428 138.956 271.615C138.956 267.936 140.147 264.744 142.527 262.039C144.907 259.226 147.775 257.332 151.129 256.359C150.913 256.142 150.534 255.98 149.993 255.872C149.56 255.764 149.073 255.709 148.532 255.709ZM16.9069 383.927C19.8283 383.927 22.4251 383.115 24.6973 381.492C26.9695 379.977 28.9171 377.867 30.5401 375.162C33.6779 370.185 36.8157 362.395 39.9535 351.791C43.1995 341.187 46.4455 328.366 49.6915 313.326C53.0457 298.286 56.3999 281.786 59.7541 263.824L62.5132 267.233C60.782 276.105 58.9426 285.14 56.995 294.337C55.1556 303.426 53.2621 312.352 51.3145 321.116C49.3669 329.772 47.3652 337.833 45.3094 345.299C43.2536 352.765 41.1978 359.257 39.142 364.775C37.0862 370.185 35.0845 374.189 33.1369 376.785C31.1893 379.382 28.863 381.708 26.158 383.764C23.5612 385.928 20.0988 387.01 15.7708 387.01C10.9018 387.01 7.16887 385.658 4.57206 382.953C1.86706 380.248 0.514565 377.002 0.514565 373.215C0.514565 368.995 1.92116 365.478 4.73437 362.665C7.54757 359.852 11.0641 358.445 15.2839 358.445C18.9627 358.445 21.7218 359.365 23.5612 361.204C25.5088 362.936 26.4826 365.208 26.4826 368.021C26.4826 371.7 25.2924 374.892 22.912 377.597C20.5316 380.302 17.6102 382.195 14.1478 383.277C14.4724 383.494 14.8511 383.656 15.2839 383.764C15.7167 383.872 16.2577 383.927 16.9069 383.927ZM161.249 368.508C162.98 368.508 164.873 367.588 166.929 365.749C168.985 363.909 171.095 361.259 173.259 357.796C175.423 354.226 177.533 349.898 179.589 344.812C181.644 339.727 183.538 333.83 185.269 327.121L181.698 344.812C178.993 352.819 176.018 359.203 172.772 363.964C169.526 368.724 166.064 372.133 162.385 374.188C158.706 376.244 154.865 377.272 150.861 377.272C144.802 377.272 140.258 375.487 137.228 371.916C134.199 368.346 132.684 363.477 132.684 357.309C132.684 351.466 133.658 345.353 135.605 338.969C137.661 332.586 140.366 326.418 143.72 320.467C147.183 314.516 151.024 309.16 155.244 304.399C159.572 299.639 164.116 295.852 168.877 293.038C173.746 290.225 178.507 288.819 183.159 288.819C186.73 288.819 189.489 290.225 191.436 293.038C193.384 295.852 193.979 300.234 193.222 306.185L191.436 307.159C191.977 303.263 191.761 300.234 190.787 298.07C189.922 295.906 188.407 294.824 186.243 294.824C184.079 294.824 181.644 296.068 178.939 298.557C176.343 301.045 173.746 304.454 171.149 308.782C168.552 313.11 166.118 318.033 163.845 323.551C161.681 328.961 159.95 334.695 158.652 340.755C157.353 346.706 156.704 352.603 156.704 358.445C156.704 362.124 157.083 364.721 157.84 366.236C158.598 367.751 159.734 368.508 161.249 368.508ZM195.656 291.253C200.309 291.145 204.529 290.929 208.316 290.604C212.103 290.171 215.727 289.576 219.19 288.819L197.928 361.204C197.604 362.611 197.333 363.964 197.117 365.262C197.009 366.452 197.171 367.426 197.604 368.183C198.145 368.941 199.01 369.319 200.201 369.319C201.607 369.319 203.176 368.508 204.907 366.885C206.639 365.154 208.424 361.691 210.263 356.498L213.185 348.707H216.268L212.211 360.555C210.696 364.991 208.748 368.4 206.368 370.78C203.988 373.161 201.445 374.838 198.74 375.812C196.035 376.785 193.384 377.272 190.787 377.272C185.161 377.272 181.157 375.595 178.777 372.241C177.154 369.86 176.397 366.939 176.505 363.477C176.721 359.906 177.479 355.849 178.777 351.304L195.656 291.253ZM288.592 291.091L288.105 294.337H231.787L232.598 291.091H288.592ZM249.965 361.204C249.207 364.018 249.261 366.073 250.127 367.372C251.101 368.67 252.507 369.319 254.347 369.319C256.619 369.319 258.891 368.183 261.163 365.911C263.435 363.639 265.437 360.122 267.168 355.362L269.603 348.707H272.687L269.441 358.121C267.277 364.613 264.085 369.428 259.865 372.565C255.753 375.703 250.83 377.272 245.096 377.272C240.118 377.272 236.277 376.136 233.572 373.864C230.867 371.592 229.244 368.508 228.703 364.613C228.27 360.609 228.703 356.227 230.002 351.466L254.347 266.908C258.999 266.8 263.219 266.584 267.006 266.259C270.793 265.934 274.418 265.393 277.88 264.636L249.965 361.204ZM344.348 318.033C340.345 329.935 336.504 339.781 332.825 347.571C329.146 355.253 325.522 361.259 321.951 365.587C318.489 369.806 314.918 372.836 311.239 374.675C307.56 376.407 303.665 377.272 299.554 377.272C295.009 377.272 291.493 376.298 289.004 374.351C286.624 372.403 285.271 369.59 284.947 365.911C284.73 362.232 285.433 357.85 287.056 352.765L302.8 304.886C303.882 301.749 304.098 299.639 303.449 298.557C302.908 297.366 301.988 296.771 300.69 296.771C299.283 296.771 297.714 297.583 295.983 299.206C294.252 300.721 292.412 304.183 290.465 309.593L287.543 317.383H284.46L288.517 305.536C290.14 300.991 292.142 297.529 294.522 295.148C297.011 292.768 299.608 291.145 302.313 290.279C305.126 289.306 307.777 288.819 310.265 288.819C315.134 288.819 318.759 289.901 321.139 292.065C323.52 294.12 324.818 297.096 325.035 300.991C325.251 304.778 324.494 309.323 322.762 314.624L308.155 358.445C305.775 365.587 306.316 369.157 309.778 369.157C311.834 369.157 314.161 367.805 316.757 365.1C319.354 362.395 322.059 358.662 324.872 353.901C327.794 349.14 330.661 343.568 333.474 337.184C336.287 330.8 338.992 323.93 341.589 316.572C344.186 309.214 346.458 301.694 348.406 294.012L344.348 318.033ZM352.301 361.204C351.544 363.909 351.219 365.965 351.327 367.372C351.435 368.67 352.355 369.319 354.086 369.319C356.034 369.319 357.819 368.4 359.442 366.56C361.173 364.613 362.851 361.259 364.474 356.498L367.557 348.22H370.641L366.259 360.555C364.852 364.775 362.959 368.129 360.578 370.618C358.306 372.998 355.763 374.675 352.95 375.649C350.245 376.731 347.432 377.272 344.511 377.272C341.589 377.272 339.101 376.785 337.045 375.812C335.097 374.838 333.582 373.485 332.5 371.754C331.418 369.698 330.932 367.264 331.04 364.45C331.256 361.529 331.797 358.229 332.663 354.55L349.055 291.091C353.491 290.983 357.657 290.766 361.552 290.442C365.556 290.117 369.234 289.576 372.589 288.819L352.301 361.204ZM402.724 375H379.84L399.641 304.886C400.398 301.965 400.615 299.909 400.29 298.719C400.074 297.421 399.262 296.771 397.855 296.771C395.908 296.771 394.123 297.745 392.5 299.693C390.877 301.532 389.145 304.832 387.306 309.593L384.222 317.87H381.139L385.521 305.536C387.144 301.208 389.091 297.853 391.363 295.473C393.636 293.093 396.178 291.415 398.992 290.442C401.913 289.36 404.888 288.819 407.918 288.819C411.38 288.819 414.031 289.522 415.871 290.929C417.71 292.227 418.954 294.012 419.604 296.284C420.253 298.557 420.469 301.045 420.253 303.75C420.145 306.347 419.766 308.944 419.117 311.541L402.724 375ZM444.273 292.389C442.109 292.389 439.783 293.038 437.294 294.337C434.806 295.635 432.263 297.962 429.666 301.316C427.069 304.67 424.31 309.323 421.389 315.274C418.576 321.225 415.654 328.853 412.625 338.158C409.703 347.355 406.674 358.499 403.536 371.592L407.107 349.681C410.569 337.779 413.707 327.933 416.52 320.143C419.333 312.352 422.146 306.185 424.96 301.64C427.881 296.988 430.911 293.688 434.048 291.74C437.294 289.792 440.973 288.819 445.085 288.819C449.305 288.819 452.551 290.063 454.823 292.552C457.095 295.04 458.231 298.178 458.231 301.965C458.231 304.995 457.528 307.808 456.121 310.405C454.823 312.893 452.983 314.949 450.603 316.572C448.331 318.087 445.734 318.844 442.813 318.844C439.675 318.844 437.24 318.033 435.509 316.41C433.778 314.678 432.912 312.244 432.912 309.106C432.912 306.509 433.507 304.129 434.698 301.965C435.888 299.693 437.511 297.745 439.567 296.122C441.622 294.499 443.895 293.417 446.383 292.876C446.059 292.768 445.734 292.66 445.409 292.552C445.085 292.443 444.706 292.389 444.273 292.389ZM472.685 339.781C477.121 338.05 481.341 336.102 485.344 333.938C489.347 331.774 492.756 329.394 495.569 326.797C499.789 323.01 503.143 318.628 505.631 313.651C508.228 308.565 509.527 303.101 509.527 297.258C509.527 295.094 509.31 293.688 508.877 293.038C508.445 292.281 507.795 291.902 506.93 291.902C504.549 291.902 501.953 293.147 499.139 295.635C496.434 298.016 493.729 301.262 491.024 305.373C488.319 309.377 485.831 313.975 483.559 319.169C481.395 324.362 479.609 329.772 478.203 335.399C476.904 341.025 476.255 346.489 476.255 351.791C476.255 357.85 477.391 362.016 479.663 364.288C482.044 366.452 485.073 367.534 488.752 367.534C491.674 367.534 495.298 366.56 499.626 364.613C503.954 362.665 508.228 359.203 512.448 354.226L515.045 355.524C512.773 359.095 509.797 362.557 506.118 365.911C502.44 369.265 498.166 372.024 493.297 374.188C488.428 376.244 483.126 377.272 477.391 377.272C472.522 377.272 468.14 376.407 464.245 374.675C460.458 372.944 457.428 370.401 455.156 367.047C452.992 363.585 451.91 359.365 451.91 354.388C451.91 348.653 452.83 342.756 454.669 336.697C456.617 330.638 459.322 324.795 462.784 319.169C466.247 313.434 470.412 308.295 475.281 303.75C480.15 299.098 485.56 295.473 491.511 292.876C497.462 290.171 503.792 288.819 510.5 288.819C515.261 288.819 519.265 289.901 522.511 292.065C525.757 294.12 527.38 297.312 527.38 301.64C527.38 305.86 526.189 309.809 523.809 313.488C521.537 317.167 518.453 320.521 514.558 323.551C510.663 326.58 506.281 329.285 501.412 331.666C496.651 334.046 491.728 336.102 486.642 337.833C481.665 339.564 476.958 340.917 472.522 341.891L472.685 339.781Z" fill="#EBE0C6"/>
<path d="M182.147 206.74C183.603 206.74 184.863 207.272 185.927 208.336C186.991 209.4 187.523 210.66 187.523 212.116C187.523 213.572 186.991 214.832 185.927 215.896C184.863 216.96 183.603 217.492 182.147 217.492C180.691 217.492 179.431 216.96 178.367 215.896C177.303 214.832 176.771 213.572 176.771 212.116C176.771 210.66 177.303 209.4 178.367 208.336C179.431 207.272 180.691 206.74 182.147 206.74ZM186.515 226.816V263.188C186.515 265.54 186.991 267.136 187.943 267.976C188.951 268.816 190.603 269.236 192.899 269.236V271C191.947 270.944 190.491 270.888 188.531 270.832C186.627 270.72 184.695 270.664 182.735 270.664C180.831 270.664 178.899 270.72 176.939 270.832C174.979 270.888 173.523 270.944 172.571 271V269.236C174.867 269.236 176.491 268.816 177.443 267.976C178.451 267.136 178.955 265.54 178.955 263.188V236.896C178.955 234.376 178.507 232.528 177.611 231.352C176.715 230.12 175.035 229.504 172.571 229.504V227.74C174.363 227.908 176.099 227.992 177.779 227.992C179.403 227.992 180.943 227.908 182.399 227.74C183.911 227.516 185.283 227.208 186.515 226.816ZM225.404 226.564C227.532 226.564 229.296 226.844 230.696 227.404C232.152 227.964 233.356 228.748 234.308 229.756C235.372 230.876 236.128 232.276 236.576 233.956C237.024 235.636 237.248 237.904 237.248 240.76V263.188C237.248 265.54 237.724 267.136 238.676 267.976C239.684 268.816 241.336 269.236 243.632 269.236V271C242.68 270.944 241.224 270.888 239.264 270.832C237.304 270.72 235.4 270.664 233.552 270.664C231.704 270.664 229.884 270.72 228.092 270.832C226.356 270.888 225.04 270.944 224.144 271V269.236C226.16 269.236 227.588 268.816 228.428 267.976C229.268 267.136 229.688 265.54 229.688 263.188V238.912C229.688 237.176 229.548 235.58 229.268 234.124C228.988 232.668 228.344 231.492 227.336 230.596C226.384 229.7 224.9 229.252 222.884 229.252C220.532 229.252 218.46 229.924 216.668 231.268C214.932 232.612 213.56 234.46 212.552 236.812C211.6 239.108 211.124 241.684 211.124 244.54V263.188C211.124 265.54 211.544 267.136 212.384 267.976C213.224 268.816 214.652 269.236 216.668 269.236V271C215.772 270.944 214.428 270.888 212.636 270.832C210.9 270.72 209.108 270.664 207.26 270.664C205.412 270.664 203.508 270.72 201.548 270.832C199.588 270.888 198.132 270.944 197.18 271V269.236C199.476 269.236 201.1 268.816 202.052 267.976C203.06 267.136 203.564 265.54 203.564 263.188V236.896C203.564 234.376 203.116 232.528 202.22 231.352C201.324 230.12 199.644 229.504 197.18 229.504V227.74C198.972 227.908 200.708 227.992 202.388 227.992C204.012 227.992 205.552 227.908 207.008 227.74C208.52 227.516 209.892 227.208 211.124 226.816V236.728C212.58 232.92 214.596 230.288 217.172 228.832C219.804 227.32 222.548 226.564 225.404 226.564Z" fill="#EBE0C6"/>
</svg>
